<?xml version="1.0" standalone="no"?>
<!DOCTYPE svg PUBLIC "-//W3C//DTD SVG 20010904//EN"
 "http://www.w3.org/TR/2001/REC-SVG-20010904/DTD/svg10.dtd">
<svg version="1.0" xmlns="http://www.w3.org/2000/svg"
 width="1712.000000pt" height="1712.000000pt" viewBox="0 0 1712.000000 1712.000000"
 preserveAspectRatio="xMidYMid meet">
<metadata>
Created by potrace 1.11, written by Peter Selinger 2001-2013
</metadata>
<g transform="translate(0.000000,1712.000000) scale(0.100000,-0.100000)"
fill="#000000" stroke="none">
<path d="M8327 15724 c-1 -1 -56 -5 -122 -9 -203 -11 -362 -26 -515 -50 -14
-2 -45 -6 -70 -10 -25 -3 -56 -8 -70 -10 -55 -11 -78 -15 -135 -26 -656 -117
-1352 -386 -1929 -744 -66 -42 -130 -81 -140 -88 -11 -7 -25 -15 -30 -20 -6
-4 -72 -51 -146 -104 -255 -182 -432 -333 -665 -567 -284 -285 -476 -521 -675
-828 -44 -68 -83 -127 -88 -133 -4 -5 -21 -35 -37 -65 -16 -30 -34 -62 -41
-70 -18 -22 -163 -301 -213 -410 -89 -194 -141 -315 -141 -329 0 -6 -5 -19
-10 -29 -31 -53 -154 -432 -211 -652 -35 -135 -101 -438 -114 -525 -3 -16 -16
-103 -30 -193 -14 -89 -24 -166 -23 -170 1 -4 -1 -27 -5 -52 -4 -25 -9 -76
-13 -115 -3 -38 -7 -86 -9 -105 -25 -257 -26 -905 0 -1000 2 -8 6 -42 10 -75
6 -62 8 -76 51 -290 30 -154 25 -132 63 -277 95 -355 257 -795 441 -1193 48
-104 254 -519 298 -600 21 -38 57 -106 81 -150 24 -44 60 -109 81 -145 20 -36
48 -85 62 -110 93 -168 396 -660 551 -895 214 -322 325 -486 502 -734 44 -62
87 -123 95 -135 8 -12 27 -37 41 -56 14 -19 66 -89 114 -155 312 -423 572
-760 903 -1169 244 -301 309 -379 521 -631 190 -224 219 -259 252 -293 8 -9
58 -66 110 -127 51 -60 96 -112 99 -115 3 -3 37 -41 75 -85 72 -82 122 -138
165 -185 14 -15 54 -60 90 -100 36 -40 79 -88 95 -105 17 -18 66 -72 110 -120
44 -49 93 -102 109 -119 358 -387 470 -498 533 -530 148 -74 323 -67 458 19
54 34 201 181 460 458 39 41 116 123 172 183 56 60 111 120 123 134 12 14 52
59 90 100 38 41 77 84 87 96 10 12 50 57 89 100 39 43 109 122 155 174 46 52
86 97 89 100 3 3 30 34 60 70 30 36 58 67 61 70 3 3 52 59 108 125 57 66 113
131 124 145 12 14 69 81 127 150 58 69 107 127 110 130 3 3 25 30 50 60 25 30
49 60 55 66 34 38 368 452 513 638 227 289 208 264 343 444 65 86 122 162 127
167 10 12 170 230 192 262 8 11 81 113 161 225 225 315 458 658 653 967 114
178 366 598 366 608 0 3 6 14 14 22 7 9 29 45 48 81 68 126 101 185 114 207
53 84 394 768 394 789 0 2 16 38 35 81 85 182 294 738 320 848 2 11 14 52 25
90 22 73 75 281 84 325 2 14 11 57 19 95 9 39 18 88 21 110 6 36 11 68 22 129
2 10 6 44 9 75 4 31 8 67 11 81 22 139 22 609 -1 895 -2 28 -6 86 -10 130 -3
44 -8 91 -10 105 -2 14 -7 52 -10 85 -3 33 -10 87 -15 120 -5 33 -12 78 -15
100 -11 79 -46 281 -55 315 -5 19 -12 49 -15 65 -2 17 -7 44 -10 60 -13 68
-97 379 -135 500 -23 72 -46 146 -52 165 -5 19 -16 49 -23 65 -7 17 -27 68
-45 115 -17 47 -35 94 -40 105 -5 11 -30 69 -55 129 -68 160 -159 342 -245
496 -104 184 -118 207 -139 238 -10 15 -57 86 -105 157 -48 72 -97 143 -109
160 -61 83 -247 316 -283 355 -143 157 -188 204 -269 285 -180 178 -367 342
-520 456 -33 24 -62 47 -65 50 -9 10 -152 109 -280 193 -593 389 -1286 671
-2005 814 -127 26 -176 35 -195 38 -8 1 -69 10 -135 19 -66 9 -134 18 -150 20
-17 2 -53 6 -80 9 -28 3 -77 8 -110 11 -33 2 -100 7 -150 11 -80 6 -573 13
-578 8z"/>
</g>
</svg>
